<?xml version="1.0" encoding="UTF-8"?>
<!DOCTYPE svg PUBLIC "-//W3C//DTD SVG 1.1//EN" "http://www.w3.org/Graphics/SVG/1.1/DTD/svg11.dtd">
<svg xmlns="http://www.w3.org/2000/svg" version="1.1" width="154px" height="154px" style="shape-rendering:geometricPrecision; text-rendering:geometricPrecision; image-rendering:optimizeQuality; fill-rule:evenodd; clip-rule:evenodd" xmlns:xlink="http://www.w3.org/1999/xlink">
<g><path style="opacity:0.79" fill="#000000" d="M 20.5,23.5 C 32.4457,23.3809 36.6123,29.0476 33,40.5C 29.2566,44.2594 24.7566,45.4261 19.5,44C 11.3101,36.7733 11.6434,29.94 20.5,23.5 Z"/></g>
<g><path style="opacity:0.804" fill="#000000" d="M 125.5,23.5 C 134.909,23.9125 139.576,28.9125 139.5,38.5C 137.493,49.5296 135.326,60.5296 133,71.5C 131.469,80.7754 130.636,90.1087 130.5,99.5C 128.549,99.7733 127.049,99.1066 126,97.5C 125.617,90.1398 124.95,82.8065 124,75.5C 121.43,63.392 119.264,51.2253 117.5,39C 117.076,32.0254 119.743,26.8587 125.5,23.5 Z"/></g>
<g><path style="opacity:0.769" fill="#000000" d="M 71.5,46.5 C 80.6854,45.3766 89.3521,46.8766 97.5,51C 104.007,55.2029 106.174,61.0362 104,68.5C 100.004,73.2998 95.6704,73.6331 91,69.5C 89.8935,65.1965 88.8935,60.8632 88,56.5C 84.1083,50.0427 78.9416,48.8761 72.5,53C 62.1482,67.0112 60.9815,81.8445 69,97.5C 75.2648,104.94 82.7648,106.44 91.5,102C 94.7974,99.7046 97.7974,97.038 100.5,94C 102.607,93.1458 103.941,93.8125 104.5,96C 93.141,111.509 78.4743,115.509 60.5,108C 45.4171,96.0487 41.9171,81.2154 50,63.5C 55.2424,55.3077 62.409,49.641 71.5,46.5 Z"/></g>
<g><path style="opacity:0.812" fill="#000000" d="M 22.5,53.5 C 23.8333,53.5 25.1667,53.5 26.5,53.5C 26.4641,60.8675 26.9641,68.2009 28,75.5C 30.4401,88.5329 32.9401,101.533 35.5,114.5C 35.9245,122.644 32.2578,127.644 24.5,129.5C 16.2749,127.764 12.6082,122.597 13.5,114C 17.741,93.9728 20.741,73.8061 22.5,53.5 Z"/></g>
<g><path style="opacity:0.793" fill="#000000" d="M 123.5,108.5 C 134.49,106.992 139.324,111.658 138,122.5C 132.485,130.668 126.152,131.334 119,124.5C 116.182,117.803 117.682,112.47 123.5,108.5 Z"/></g>
</svg>
